<svg xmlns="http://www.w3.org/2000/svg" width="512" height="512" viewBox="0 0 512 512">
<rect width="100%" height="100%" fill="#04111c"/>
<line x1="256.0" y1="296.0" x2="157.0" y2="296.0" stroke="#7fb8ff" stroke-width="3" opacity="0.8"/>
<line x1="256.0" y1="296.0" x2="168.5" y2="279.6" stroke="#7fb8ff" stroke-width="3" opacity="0.8"/>
<line x1="256.0" y1="296.0" x2="173.0" y2="263.8" stroke="#7fb8ff" stroke-width="3" opacity="0.8"/>
<line x1="256.0" y1="296.0" x2="167.6" y2="241.3" stroke="#7fb8ff" stroke-width="3" opacity="0.8"/>
<line x1="256.0" y1="296.0" x2="185.8" y2="232.0" stroke="#7fb8ff" stroke-width="3" opacity="0.8"/>
<line x1="256.0" y1="296.0" x2="200.0" y2="221.8" stroke="#7fb8ff" stroke-width="3" opacity="0.8"/>
<line x1="256.0" y1="296.0" x2="212.8" y2="209.2" stroke="#7fb8ff" stroke-width="3" opacity="0.8"/>
<line x1="256.0" y1="296.0" x2="234.7" y2="221.0" stroke="#7fb8ff" stroke-width="3" opacity="0.8"/>
<line x1="256.0" y1="296.0" x2="248.4" y2="214.3" stroke="#7fb8ff" stroke-width="3" opacity="0.8"/>
<line x1="256.0" y1="296.0" x2="264.3" y2="206.4" stroke="#7fb8ff" stroke-width="3" opacity="0.8"/>
<line x1="256.0" y1="296.0" x2="278.4" y2="217.1" stroke="#7fb8ff" stroke-width="3" opacity="0.8"/>
<line x1="256.0" y1="296.0" x2="300.1" y2="207.4" stroke="#7fb8ff" stroke-width="3" opacity="0.8"/>
<line x1="256.0" y1="296.0" x2="320.5" y2="210.6" stroke="#7fb8ff" stroke-width="3" opacity="0.8"/>
<line x1="256.0" y1="296.0" x2="326.9" y2="231.3" stroke="#7fb8ff" stroke-width="3" opacity="0.8"/>
<line x1="256.0" y1="296.0" x2="323.2" y2="254.4" stroke="#7fb8ff" stroke-width="3" opacity="0.8"/>
<line x1="256.0" y1="296.0" x2="343.7" y2="262.0" stroke="#7fb8ff" stroke-width="3" opacity="0.8"/>
<line x1="256.0" y1="296.0" x2="360.2" y2="276.5" stroke="#7fb8ff" stroke-width="3" opacity="0.8"/>
<line x1="256.0" y1="296.0" x2="346.0" y2="296.0" stroke="#7fb8ff" stroke-width="3" opacity="0.8"/>
<ellipse cx="256.0" cy="296.0" rx="82" ry="22" fill="none" stroke="#a9dcff" stroke-width="4" opacity="0.65"/>
</svg>